<svg xmlns:svg="http://www.w3.org/2000/svg" xmlns="http://www.w3.org/2000/svg" version="1.1" width="580" height="98">
  <path d="M476.723 97.247C459.839 94.294 445.83 83.058 439.48 67.374 436.209 59.296 435.102 45.448 437.062 37.135 439.853 25.302 447.362 14.479 457.133 8.209 465.802 2.646 472.662 1.078 490.804 0.509L507.054 0l0 17.014 0 17.014-6.25-2.545c-4.105-1.672-8.824-2.689-13.75-2.965-7-0.391-7.813-0.217-12.203 2.61-6.29 4.051-9.192 9.632-9.251 17.796-0.039 5.293 0.385 6.776 2.996 10.492 4.051 5.764 9.569 8.811 15.958 8.813 6.635 0.002 7.708-0.816 7.319-5.57l-0.319-3.898-7.75 0.05-7.75 0.05-0.001-11.05-0.001-11.05 21.001 0.289 21.001 0.289 0 20.312c0 12.345 0.437 21.565 1.114 23.507 1.401 4.02 0.088 5.652-8.032 9.98-9.787 5.217-24.545 7.838-34.412 6.112zM16.687 93.51 16.687 93.51c0.466-0.962 0.987-16.308 1.159-34.101L18.158 27.057 9.079 27.408 0 27.76l0.277-13.5 0.277-13.5 23.25-0.268 23.25-0.268 0 47.518 0 47.518-15.607 0c-14.52 0-15.548-0.122-14.76-1.75zM53.054 47.76l0-47.5 20.5 0 20.5 0 0 13.832 0 13.832-5.5-0.456-5.5-0.456 0 5.124 0 5.124 8.5 0 8.5 0 0-18.5 0-18.5 15 0 15 0 0 47.5 0 47.5-15.975 0-15.975 0 0.975-2.565c0.536-1.411 0.975-9.286 0.975-17.5l0-14.935-8.548 0-8.548 0 0.304 15.75c0.167 8.663 0.687 16.538 1.155 17.5 0.792 1.629-0.259 1.75-15.256 1.75l-16.107 0 0-47.5zM134.182 93.607c2.085-2.511 2.566-83.307 0.53-89.215l-1.424-4.133 28.883 0 28.883 0 0 13.854 0 13.854-5.25-1.376c-2.963-0.777-8.736-1.257-13.25-1.104l-8 0.273-0.304 5.878-0.304 5.878 8.554-0.449 8.554-0.449 0 11.7 0 11.7-4.424-0.944c-2.433-0.519-6.146-0.802-8.25-0.629l-3.826 0.315-0.306 5.36-0.306 5.36 11.306-0.494c6.218-0.272 12.319-0.823 13.556-1.226l2.25-0.732 0 14.117 0 14.117-29.122 0c-26.968 0-29.021-0.122-27.75-1.652zM247.723 92.01C233.886 58.903 210.075 5.249 208.263 3.096l-2.386-2.836 33.589 0c18.474 0 33.587 0.338 33.586 0.75-0.002 0.413-1.964 5.925-4.36 12.25l-4.357 11.5-7.64 0.292c-4.202 0.161-7.64 0.462-7.64 0.669 0 0.947 9.368 26.128 9.978 26.823 0.379 0.431 5.104-11.157 10.5-25.75l9.811-26.534 38.855 0 38.855 0 0 14.607c0 13.552-0.126 14.549-1.75 13.801-0.962-0.443-7.037-0.979-13.5-1.191l-11.75-0.385 0 5.209 0 5.209 8.5-0.446 8.5-0.446 0 11.7 0 11.7-4.424-0.944c-2.433-0.519-6.146-0.802-8.25-0.629l-3.826 0.315-0.3 5.75-0.3 5.75 8.924 0c5.376 0 10.614-0.596 13.176-1.5 2.338-0.825 4.42-1.5 4.626-1.5 0.206 0 0.374 6.3 0.374 14l0 14-29.122 0c-23.858 0-28.926-0.236-28.038-1.307 1.193-1.438 2.17-70.695 0.997-70.694-0.365 0-7.554 16.201-15.975 36.001l-15.311 36-10.262 0-10.262 0-1.358-3.25zM360.909 0.248l0.813 2.25c1.092 3.006 1.063 88.766-0.031 91-0.799 1.632 0.296 1.75 16.281 1.75 16.638 0 17.13-0.06 16.125-1.937-0.569-1.064-1.031-7.389-1.031-14.062 0-12.113 0.004-12.132 2.25-11.469 4.206 1.242 9.709 5.472 12.375 9.5 3.007 4.544 4.229 12.496 2.438 15.844l-1.156 2.125 17.094 0c9.999 0 16.86-0.375 16.531-0.906-0.309-0.5-1.377-5.845-2.406-11.875-2.266-13.28-6.327-21.728-12.781-26.656l-4.281-3.281 2.438-3.281c8.158-11.057 6.853-29.553-2.75-39.156-7.814-7.814-16.712-9.801-43.594-9.812l-18.312-0.031zm34.344 25.031c0.963 0.06 2.357 0.607 4.344 1.438 5.955 2.488 7.161 8.996 2.531 13.625-1.964 1.964-3.933 2.906-6 2.906l-3.062 0 0-9c0-6.874 0.068-9.1 2.188-8.969zM522.697 93.51c1.097-2.241 1.13-87.998 0.035-91.015l-0.822-2.265 28.822 0.265 28.822 0.265 0.279 13.827 0.279 13.827-2.279-0.731c-5.541-1.777-9.793-2.376-17.029-2.398l-7.75-0.024 0 6.125 0 6.125 8.5-0.446 8.5-0.446 0 11.928c0 10.952-0.143 11.872-1.75 11.248-0.962-0.374-4.74-0.933-8.394-1.243l-6.644-0.564-0.356 5.264c-0.249 3.677 0.038 5.415 0.951 5.765 1.698 0.651 21.018-0.394 23.944-1.296l2.25-0.693 0 14.117 0 14.117-29.107 0c-27.381 0-29.056-0.104-28.25-1.75z" fill="#FA4B2A"/>
</svg>
